<svg width="48" height="48" viewBox="0 0 48 48" fill="none" xmlns="http://www.w3.org/2000/svg">
<g clip-path="url(#clip0_41_2803)">
<path d="M30 39.6169V7.03125C30 3.15422 26.8458 0 22.9688 0H9.84375C5.96672 0 2.8125 3.15422 2.8125 7.03125V39.6169C1.17572 40.1974 0 41.7605 0 43.5938V46.5938C0 47.3704 0.629625 48 1.40625 48H31.4062C32.1829 48 32.8125 47.3704 32.8125 46.5938V43.5938C32.8125 41.7605 31.6368 40.1974 30 39.6169ZM23.5836 36.6618C23.246 35.6113 22.6436 34.6253 21.8137 33.7519C23.1736 32.3272 23.9062 30.6233 23.9062 28.8281C23.9062 27.0338 23.1742 25.3305 21.8154 23.9062C23.1742 22.482 23.9062 20.7787 23.9062 18.9844C23.9062 17.1892 23.1736 15.4853 21.8137 14.0606C22.6435 13.1872 23.2459 12.2012 23.5836 11.1507C23.8705 10.2579 23.9618 9.34247 23.8612 8.4375H27.1875V39.375H23.8612C23.9618 38.47 23.8705 37.5545 23.5836 36.6618ZM9.84375 2.8125H22.9688C24.8022 2.8125 26.3662 3.98803 26.9466 5.625H5.86594C6.44634 3.98803 8.01028 2.8125 9.84375 2.8125ZM5.625 8.4375H21.0168C21.279 9.774 20.79 11.1277 19.632 12.2689C18.2872 11.3198 15.9003 9.84375 14.0625 9.84375C12.7585 9.84375 11.5172 10.2362 10.5671 10.9488C9.51159 11.7404 8.90625 12.8752 8.90625 14.0625C8.90625 15.2498 9.51159 16.3846 10.5671 17.1762C11.5172 17.8888 12.7585 18.2812 14.0625 18.2812C15.9003 18.2812 18.2872 16.8052 19.632 15.8561C20.5806 16.7902 21.0938 17.8753 21.0938 18.9844C21.0938 20.0934 20.5806 21.1786 19.632 22.1126C18.2872 21.1636 15.9003 19.6875 14.0625 19.6875C12.7585 19.6875 11.5172 20.0799 10.5671 20.7925C9.51159 21.5842 8.90625 22.719 8.90625 23.9062C8.90625 25.0935 9.51159 26.2283 10.5671 27.02C11.5172 27.7326 12.7585 28.125 14.0625 28.125C15.9003 28.125 18.2872 26.6489 19.632 25.6999C20.5806 26.6339 21.0938 27.7191 21.0938 28.8281C21.0938 29.9372 20.5806 31.0223 19.632 31.9564C18.2872 31.0073 15.9003 29.5312 14.0625 29.5312C12.7585 29.5312 11.5172 29.9237 10.5671 30.6363C9.51159 31.4279 8.90625 32.5628 8.90625 33.75C8.90625 34.9372 9.51159 36.0721 10.5671 36.8637C11.5172 37.5763 12.7585 37.9688 14.0625 37.9688C15.9003 37.9688 18.2872 36.4927 19.632 35.5436C20.79 36.6847 21.279 38.0385 21.0168 39.375H5.625V8.4375ZM17.2479 14.0625C16.0796 14.8049 14.7779 15.4688 14.0625 15.4688C12.721 15.4688 11.7188 14.7263 11.7188 14.0625C11.7188 13.3987 12.721 12.6562 14.0625 12.6562C14.7779 12.6562 16.0796 13.3201 17.2479 14.0625ZM17.2479 23.9062C16.0796 24.6487 14.7779 25.3125 14.0625 25.3125C12.721 25.3125 11.7188 24.5701 11.7188 23.9062C11.7188 23.2424 12.721 22.5 14.0625 22.5C14.7779 22.5 16.0796 23.1638 17.2479 23.9062ZM17.2479 33.75C16.0796 34.4924 14.7779 35.1562 14.0625 35.1562C12.721 35.1562 11.7188 34.4138 11.7188 33.75C11.7188 33.0862 12.721 32.3438 14.0625 32.3438C14.7779 32.3438 16.0796 33.0076 17.2479 33.75ZM30 45.1875H2.8125V43.5938C2.8125 42.8183 3.44334 42.1875 4.21875 42.1875H28.5938C29.3692 42.1875 30 42.8183 30 43.5938V45.1875Z" fill="black"/>
<path d="M33.6695 18.6346C34.8364 19.3527 36.1448 19.7118 37.4533 19.7118C38.7618 19.7118 40.0702 19.3527 41.2371 18.6346C42.6619 17.7578 44.4321 17.7578 45.8569 18.6346C46.5184 19.0418 47.3844 18.8355 47.7915 18.1739C48.1986 17.5125 47.9924 16.6464 47.3309 16.2393C44.997 14.803 42.097 14.803 39.7631 16.2393C38.3384 17.1161 36.5681 17.1161 35.1434 16.2393C34.4822 15.8323 33.6159 16.0385 33.2088 16.7C32.8018 17.3614 33.008 18.2275 33.6695 18.6346Z" fill="black"/>
<path d="M47.331 22.8018C44.9971 21.3655 42.0971 21.3655 39.7632 22.8018C38.3385 23.6786 36.5682 23.6786 35.1435 22.8018C34.4822 22.3947 33.616 22.601 33.2088 23.2625C32.8018 23.9239 33.0079 24.79 33.6694 25.1971C34.8363 25.9152 36.1448 26.2743 37.4533 26.2743C38.7617 26.2743 40.0702 25.9152 41.2371 25.1971C42.6618 24.3203 44.4321 24.3203 45.8568 25.1971C46.5183 25.6042 47.3844 25.398 47.7915 24.7364C48.1986 24.075 47.9925 23.2089 47.331 22.8018Z" fill="black"/>
<path d="M47.331 29.3643C44.9971 27.928 42.0971 27.928 39.7632 29.3643C38.3385 30.2411 36.5682 30.2411 35.1435 29.3643C34.4822 28.9572 33.616 29.1635 33.2088 29.825C32.8018 30.4864 33.0079 31.3525 33.6694 31.7596C34.8363 32.4777 36.1448 32.8368 37.4533 32.8368C38.7617 32.8368 40.0702 32.4777 41.2371 31.7596C42.6618 30.8828 44.4321 30.8828 45.8568 31.7596C46.5183 32.1668 47.3844 31.9605 47.7915 31.2989C48.1986 30.6375 47.9925 29.7714 47.331 29.3643Z" fill="black"/>
</g>
<defs>
<clipPath id="clip0_41_2803">
<rect width="48" height="48" fill="white"/>
</clipPath>
</defs>
</svg>
