<svg width="147" height="80" viewBox="0 0 147 80" fill="none" xmlns="http://www.w3.org/2000/svg">
<path d="M68.3632 34.3398C67.9203 33.7198 67.1232 33.4639 66.3852 33.6903C64.2104 34.3693 61.9864 34.2807 59.7722 33.4443C57.3022 32.5094 55.1667 30.7971 53.4348 28.3566C51.0828 25.0501 50.2956 21.7732 51.0336 18.3092C51.7717 14.8748 53.9563 11.834 57.5384 9.28527C61.1204 6.73652 64.7123 5.65404 68.2254 6.06735C71.7484 6.48066 74.612 8.29135 76.964 11.5978C78.7058 14.0383 79.621 16.6068 79.68 19.2244C79.739 21.5862 79.0896 23.7315 77.7512 25.6012C77.3084 26.2212 77.2985 27.0576 77.7315 27.6677L79.1781 29.6949C79.5127 30.1575 80.0441 30.433 80.6247 30.433C81.1955 30.433 81.7367 30.1575 82.0615 29.6851C83.9312 27.0379 84.807 23.9775 84.6692 20.5923C84.5118 16.7741 83.0554 12.9067 80.3492 9.09829C78.0858 5.91974 75.4386 3.53828 72.4667 1.99329C69.4752 0.438453 66.3163 -0.191354 63.0787 0.103868C59.8509 0.39909 56.6822 1.64886 53.6414 3.80398C50.6006 5.96894 48.3865 8.55705 47.058 11.5093C45.7196 14.4713 45.2867 17.6696 45.7787 21.0056C46.2609 24.3121 47.6681 27.6185 49.961 30.8266C52.6475 34.5956 55.8359 37.2231 59.4376 38.65C61.2582 39.3684 63.0689 39.7226 64.8599 39.7226C66.2277 39.7226 67.5956 39.516 68.9339 39.0928C69.4752 38.9255 69.8983 38.5024 70.0754 37.971C70.2526 37.4298 70.164 36.8393 69.8393 36.3768L68.3632 34.3398Z" fill="#AF5E3E"/>
<path d="M103.663 18.7218C103.18 15.4153 101.773 12.1088 99.4803 8.90074C96.7937 5.13175 93.6053 2.50427 90.0036 1.07737C86.7956 -0.192088 83.6072 -0.339699 80.5073 0.634533C79.9661 0.801825 79.5429 1.22498 79.3658 1.75638C79.1887 2.29762 79.2772 2.88806 79.602 3.35057L81.0584 5.39744C81.5012 6.01741 82.2983 6.27327 83.0364 6.04693C85.2014 5.36792 87.4352 5.45649 89.6494 6.29295C92.1194 7.22782 94.2548 8.94011 95.9868 11.3806C98.3387 14.6871 99.126 17.9739 98.3879 21.428C97.6499 24.8624 95.4652 27.9032 91.8832 30.4519C88.3012 33.0007 84.7093 34.093 81.1962 33.6699C77.6732 33.2565 74.8096 31.4459 72.4576 28.1394C70.7158 25.6989 69.8006 23.1304 69.7416 20.5128C69.6825 18.151 70.332 16.0057 71.6704 14.136C72.1132 13.516 72.123 12.6796 71.69 12.0695L70.2435 10.0423C69.9089 9.57975 69.3775 9.30421 68.7969 9.30421C68.2261 9.30421 67.6849 9.57975 67.3601 10.0521C65.4904 12.6993 64.6146 15.7597 64.7523 19.1449C64.9098 22.9631 66.3662 26.8305 69.0724 30.6389C71.3358 33.8175 73.9829 36.1989 76.9548 37.7439C79.4741 39.0527 82.1015 39.7022 84.7979 39.7022C85.3096 39.7022 85.8213 39.6825 86.3429 39.6333C89.5706 39.3381 92.7394 38.0883 95.7801 35.9332C98.8209 33.7683 101.035 31.1802 102.364 28.2279C103.722 25.256 104.155 22.0578 103.663 18.7218Z" fill="#AF5E3E"/>
<path d="M20.5081 44.3176C18.9434 43.6976 17.1327 43.3926 15.135 43.3926C12.8028 43.3926 10.6378 43.8256 8.71888 44.6817C6.7901 45.5379 5.18606 46.7581 3.94613 48.3031C2.7062 49.8579 1.9091 51.6588 1.58436 53.6368L0.157452 61.7455C0.0590444 62.3261 0 62.9559 0 63.635C0 65.3374 0.432992 66.8627 1.28914 68.1715C2.14528 69.4803 3.36553 70.5038 4.9302 71.2222C6.46536 71.9208 8.28589 72.2751 10.3426 72.2751C12.852 72.2751 15.135 71.8815 17.1327 71.1139C19.1599 70.3365 20.7639 69.254 21.9055 67.896C23.0667 66.5084 23.6571 64.9536 23.6571 63.2807C23.6571 62.6902 23.4308 61.8636 22.3581 61.224C21.6791 60.8303 20.823 60.604 19.7995 60.5548C19.2977 60.5351 18.8548 60.9091 18.7859 61.411C18.7564 61.5979 18.7269 61.8636 18.6679 62.2179C18.5006 63.8613 17.7527 65.1209 16.3553 66.0558C14.9382 67.0202 13.1275 67.5024 10.9921 67.5024C9.2306 67.5024 7.82338 67.0694 6.80978 66.2231C5.81587 65.3866 5.33367 64.3041 5.33367 62.9264C5.33367 62.5033 5.35336 62.1785 5.40256 61.9423L6.82946 53.8237C7.11485 52.1508 7.95131 50.8223 9.37821 49.7497C10.8051 48.6869 12.5174 48.1456 14.4757 48.1456C16.2077 48.1456 17.6247 48.5294 18.6974 49.2773C19.7208 49.9957 20.2129 50.9109 20.2129 52.0623C20.2129 52.6035 20.1243 53.2136 19.957 53.8533C19.8783 54.1583 19.9472 54.4732 20.1538 54.7193C20.3605 54.9653 20.6754 55.103 21.0001 55.0735C22.2204 54.985 23.2635 54.611 24.0901 53.9812C25.1135 53.2038 25.6253 52.1803 25.6253 50.9404C25.6253 49.4545 25.1627 48.1063 24.2476 46.9549C23.3619 45.8429 22.1023 44.9474 20.5081 44.3176Z" fill="#AF5E3E"/>
<path d="M46.074 51.4719C45.8772 51.2455 45.582 51.1274 45.2769 51.1373C44.0862 51.1963 43.1809 51.4227 42.492 51.8458C41.6555 52.3575 41.134 53.1546 40.9569 54.2174L39.2544 63.8515C39.0674 64.9537 38.4967 65.859 37.5126 66.6266C36.5088 67.404 35.4165 67.7878 34.1668 67.7878C31.5098 67.7878 31.1752 66.6266 31.1752 65.6032C31.1752 65.3079 31.2145 64.9832 31.2834 64.6191L33.4779 52.2887C33.5271 51.9934 33.4484 51.6982 33.2516 51.4719C33.0548 51.2455 32.7595 51.1274 32.4545 51.1373C31.2637 51.1963 30.3485 51.4227 29.6499 51.8458C28.7937 52.3575 28.2722 53.1546 28.0852 54.2273L26.2646 64.6191C26.1859 65.0619 26.1367 65.5244 26.1367 65.9968C26.1367 67.8173 26.737 69.3426 27.9277 70.5137C29.1185 71.6847 30.6831 72.285 32.5726 72.285C33.9995 72.285 35.3968 71.9406 36.7352 71.2616C37.2567 70.9959 37.7685 70.681 38.2605 70.3169L38.1129 71.0943C38.0538 71.3993 38.1424 71.7044 38.3491 71.9307C38.5557 72.1669 38.8509 72.285 39.1658 72.2653C41.5473 72.098 43.0234 70.8483 43.417 68.6538L46.3004 52.2985C46.3594 52.0033 46.2708 51.6982 46.074 51.4719Z" fill="#AF5E3E"/>
<path d="M65.3114 52.7999C64.0715 51.6879 62.4084 51.127 60.3714 51.127C58.974 51.127 57.6553 51.4222 56.4351 51.9929C55.9234 52.2291 55.4215 52.5243 54.9294 52.8786L55.0377 52.3078C55.0967 52.0028 55.0082 51.6977 54.8015 51.4714C54.5949 51.2352 54.2898 51.127 53.9749 51.1466C52.9908 51.2254 52.1445 51.5107 51.4458 52.0028C50.5897 52.6031 50.0583 53.4592 49.8811 54.5318L45.5611 78.8384C45.5119 79.1337 45.5906 79.4387 45.7972 79.6651C45.9842 79.8816 46.2598 79.9996 46.5451 79.9996C46.5648 79.9996 46.5845 79.9996 46.6042 79.9996C49.8221 79.8225 50.7668 78.1201 51.003 76.7227L52.0264 70.8379C52.3905 71.1036 52.7842 71.3398 53.2073 71.5465C54.2209 72.0287 55.3231 72.2747 56.4843 72.2747C58.9937 72.2747 61.1291 71.635 62.8119 70.3656C64.5242 69.0863 65.587 67.2953 65.9707 65.0417L67.0926 58.5862C67.1713 58.1139 67.2205 57.6514 67.2205 57.2085C67.2008 55.4077 66.571 53.9217 65.3114 52.7999ZM62.1722 57.9171C62.1722 57.9859 62.1624 58.1729 62.1033 58.5961L61.0602 64.6186C60.8831 65.6125 60.4009 66.3702 59.6038 66.9312C58.787 67.5019 57.7242 67.7971 56.4252 67.7971C55.3428 67.7971 54.4768 67.561 53.8371 67.0985C53.2467 66.6655 52.9613 66.1242 52.9613 65.4255C52.9613 65.2189 52.981 65.1008 52.9908 65.0221L54.1225 58.5961C54.2701 57.7694 54.772 57.0806 55.638 56.5098C56.5335 55.9194 57.5766 55.6143 58.7476 55.6143C59.8793 55.6143 60.765 55.8308 61.3554 56.2638C61.9065 56.6574 62.1722 57.1987 62.1722 57.9171Z" fill="#AF5E3E"/>
<path d="M83.8039 51.7863C83.243 51.3533 82.4754 51.127 81.5208 51.127C79.7495 51.127 78.0372 51.7568 76.4234 52.9869L76.5414 52.2882C76.5906 51.9929 76.5021 51.6879 76.2954 51.4615C76.0888 51.2352 75.7935 51.1171 75.4885 51.1368C73.1267 51.3041 71.6604 52.5342 71.257 54.7188L68.3736 71.1036C68.3244 71.3989 68.4032 71.6941 68.6 71.9204C68.7869 72.1369 69.0625 72.255 69.3479 72.255C69.3676 72.255 69.3774 72.255 69.3971 72.255C70.5878 72.1959 71.4931 71.9696 72.1722 71.5465C72.9889 71.0347 73.5105 70.2475 73.727 69.1748L75.3901 59.5408C75.577 58.4189 76.1577 57.5037 77.1614 56.746C78.1947 55.9784 79.3362 55.6045 80.6746 55.6045C81.5897 55.6045 82.3376 55.7324 82.9182 55.9883C83.3709 56.1851 83.8728 56.0375 84.1286 55.6438C84.5124 55.0436 84.7092 54.3941 84.7092 53.7249C84.7191 52.9278 84.4042 52.2488 83.8039 51.7863Z" fill="#AF5E3E"/>
<path d="M102.707 67.2064H90.3568L91.6263 60.062H98.564C99.7252 60.062 100.65 59.7078 101.329 59.0189C101.88 58.458 102.294 57.6314 102.559 56.5686C102.638 56.2733 102.569 55.9584 102.382 55.7124C102.195 55.4762 101.91 55.3385 101.605 55.3385H92.4922L93.6928 48.4598H105.393C106.545 48.4598 107.48 48.1154 108.169 47.4265C108.729 46.8656 109.153 46.039 109.418 44.9762C109.497 44.681 109.428 44.3661 109.241 44.12C109.054 43.8839 108.769 43.7461 108.464 43.7461H91.8034C91.085 43.7461 90.4257 43.9724 89.8549 44.4251C89.2743 44.8876 88.9102 45.4584 88.7823 46.1374L84.6787 69.3615C84.5803 70.0996 84.7574 70.7294 85.2101 71.2116C85.6529 71.6938 86.2631 71.9299 87.011 71.9299H104.586C105.079 71.9299 105.502 71.556 105.571 71.064C105.61 70.7294 105.639 70.4145 105.639 70.1291C105.639 69.1745 105.393 68.4463 104.892 67.9543C104.4 67.4622 103.661 67.2064 102.707 67.2064Z" fill="#AF5E3E"/>
<path d="M121.889 51.9929C120.698 51.4123 119.311 51.127 117.756 51.127C115.069 51.127 112.757 51.8158 110.867 53.1837C108.958 54.5712 107.797 56.4311 107.413 58.7043L106.331 64.7465C106.272 65.0221 106.242 65.3763 106.242 65.8388C106.242 67.0886 106.606 68.2301 107.335 69.2044C108.043 70.1688 109.027 70.9363 110.247 71.4677C111.448 71.9991 112.776 72.2747 114.184 72.2747C116.004 72.2747 117.667 71.9696 119.114 71.3595C120.58 70.7494 121.8 69.8735 122.735 68.7615C123.67 67.6397 124.27 66.3604 124.526 64.9532L125.569 58.9011C125.658 58.4977 125.697 58.0942 125.697 57.7006C125.697 56.4901 125.363 55.3585 124.694 54.3547C124.044 53.3805 123.09 52.5735 121.889 51.9929ZM120.708 58.1434C120.708 58.2516 120.698 58.4583 120.639 58.8618L119.675 64.5399C119.498 65.5535 118.986 66.3309 118.13 66.9213C117.254 67.5216 116.132 67.8267 114.813 67.8267C113.554 67.8267 112.619 67.5905 112.029 67.1378C111.468 66.7048 111.202 66.1341 111.202 65.3763C111.202 65.3271 111.212 65.1697 111.271 64.7367L112.235 59.0586C112.412 58.0351 112.934 57.2282 113.829 56.5689C114.735 55.9095 115.847 55.575 117.136 55.575C118.366 55.575 119.291 55.8111 119.881 56.2835C120.433 56.7362 120.708 57.3365 120.708 58.1434Z" fill="#AF5E3E"/>
<path d="M144.765 52.79C143.614 51.6879 142.098 51.127 140.258 51.127C138.811 51.127 137.355 51.4812 135.918 52.1701C135.328 52.4554 134.767 52.79 134.236 53.164L134.383 52.3078C134.432 52.0126 134.344 51.7076 134.147 51.4812C133.94 51.2549 133.645 51.1368 133.34 51.1565C130.978 51.3238 129.522 52.5539 129.118 54.7287L126.225 71.1233C126.176 71.4185 126.255 71.7138 126.452 71.9401C126.639 72.1566 126.914 72.2747 127.199 72.2747C127.219 72.2747 127.229 72.2747 127.249 72.2747C128.439 72.2156 129.345 71.9893 130.024 71.5661C130.841 71.0544 131.362 70.2672 131.579 69.1945L133.242 59.5605C133.35 58.8913 133.675 58.2516 134.196 57.6514C134.737 57.0314 135.407 56.5295 136.194 56.1654C136.981 55.8013 137.808 55.6143 138.644 55.6143C141.095 55.6143 141.409 56.8051 141.409 57.8383C141.409 58.3304 141.37 58.5862 141.341 58.7437L139.185 71.1135C139.136 71.4087 139.215 71.7039 139.412 71.9302C139.609 72.1566 139.894 72.2747 140.209 72.2648C141.35 72.2058 142.275 71.9696 142.954 71.5563C143.791 71.0446 144.312 70.2475 144.49 69.1847L146.389 58.4681C146.468 57.9761 146.517 57.5037 146.517 57.0609C146.497 55.3388 145.916 53.902 144.765 52.79Z" fill="#AF5E3E"/>
</svg>
