<svg width="48" height="48" viewBox="0 0 48 48" fill="none" xmlns="http://www.w3.org/2000/svg">
<path d="M46.125 11.0781C45.1 11.0781 44.2685 11.9009 44.2516 12.9219H38.75C31.6162 12.9219 25.8125 18.7257 25.8125 25.8594V33.1719H22.1875V14.7969C22.1875 7.66319 16.3838 1.85941 9.25003 1.85941H3.74841C3.73153 0.838375 2.89997 0.015625 1.875 0.015625C0.839438 0.015625 0 0.855063 0 1.89062V16.6406C0 17.6762 0.839438 18.5156 1.875 18.5156C2.89997 18.5156 3.73153 17.6928 3.74841 16.6718H7.37503V35.0468C7.37503 42.1805 13.1787 47.9843 20.3125 47.9843H27.6875C34.8213 47.9843 40.625 42.1805 40.625 35.0468V27.7343H44.2516C44.2685 28.7553 45.1 29.5781 46.125 29.5781C47.1606 29.5781 48 28.7387 48 27.7031V12.9531C48 11.9176 47.1606 11.0781 46.125 11.0781ZM3.75 12.9218V5.60931H9.25003C14.316 5.60931 18.4375 9.73084 18.4375 14.7968V29.3543C17.9858 29.2194 17.4094 29.1093 16.6249 29.1093C14.4875 29.1093 14.1561 29.8593 12.9371 29.8593C12.0865 29.8593 12.0002 29.6458 11.125 29.3733V14.7968C11.125 13.7612 10.2856 12.9218 9.25003 12.9218H3.75ZM27.6875 44.2343H20.3125C15.2466 44.2343 11.125 40.1128 11.125 35.0468V33.3644C11.5766 33.4992 12.1529 33.6092 12.9371 33.6092C15.0745 33.6092 15.4059 32.8592 16.6249 32.8592C17.4758 32.8592 17.5619 33.0728 18.4375 33.3453V35.0467C18.4375 36.0823 19.277 36.9217 20.3125 36.9217H27.6875C28.723 36.9217 29.5625 36.0823 29.5625 35.0467V33.3643C30.0141 33.4991 30.5903 33.6092 31.3747 33.6092C33.512 33.6092 33.8435 32.8592 35.0623 32.8592C35.9133 32.8592 35.9993 33.0726 36.875 33.3453V35.0466C36.875 40.1129 32.7534 44.2343 27.6875 44.2343ZM38.75 23.9843C37.7144 23.9843 36.875 24.8238 36.875 25.8593V29.3543C36.4233 29.2194 35.8469 29.1093 35.0623 29.1093C32.9325 29.1093 32.5884 29.8593 31.3747 29.8593C30.524 29.8593 30.4378 29.6458 29.5625 29.3733V25.8593C29.5625 20.7933 33.684 16.6718 38.75 16.6718H44.25V23.9843H38.75Z" fill="black"/>
</svg>
