<svg width="48" height="48" viewBox="0 0 48 48" fill="none" xmlns="http://www.w3.org/2000/svg">
<path d="M25.2595 38.6915L33.697 21.8165C34.1646 20.8815 33.4847 19.7814 32.4393 19.7814H25.408V9.93762C25.408 8.45374 23.4076 7.98152 22.744 9.30874L14.3065 26.1837C13.839 27.1187 14.5189 28.2189 15.5643 28.2189H22.5955V38.0626C22.5955 39.5465 24.596 40.0188 25.2595 38.6915ZM17.8397 25.4064L22.5955 15.8946V21.1876C22.5955 21.9642 23.2252 22.5939 24.0018 22.5939H30.1639L25.408 32.1056V26.8126C25.408 26.036 24.7784 25.4064 24.0018 25.4064H17.8397Z" fill="black"/>
<path d="M44.6616 11.7855C44.2658 11.1173 43.4033 10.8965 42.735 11.2922C42.0668 11.688 41.846 12.5505 42.2417 13.2188V13.2189C44.1687 16.472 45.1872 20.1998 45.1872 23.9993C45.1872 35.6821 35.6825 45.1868 23.9997 45.1868C19.6017 45.1868 15.4082 43.8544 11.8791 41.3817H13.3268C14.1034 41.3817 14.733 40.7521 14.733 39.9755C14.733 39.1989 14.1034 38.5692 13.3268 38.5692H8.02344C7.24681 38.5692 6.61719 39.1989 6.61719 39.9755V45.2788C6.61719 46.0554 7.24681 46.6851 8.02344 46.6851C8.80006 46.6851 9.42969 46.0554 9.42969 45.2788V43.0719C13.5941 46.2673 18.6637 47.9993 23.9997 47.9993C30.4103 47.9993 36.4372 45.5028 40.9703 40.9699C45.5033 36.4369 47.9997 30.4099 47.9997 23.9993C47.9997 19.6958 46.8454 15.4723 44.6616 11.7855Z" fill="black"/>
<path d="M2.8125 24C2.8125 12.3172 12.3172 2.81251 24 2.81251C28.398 2.81251 32.5913 4.14488 36.1206 6.61754H34.6729C33.8962 6.61754 33.2666 7.24717 33.2666 8.02379C33.2666 8.80042 33.8962 9.43004 34.6729 9.43004H39.9761C40.7527 9.43004 41.3824 8.80042 41.3824 8.02379V2.72054C41.3824 1.94392 40.7527 1.31429 39.9761 1.31429C39.1995 1.31429 38.5699 1.94392 38.5699 2.72054V4.92751C34.4002 1.72782 29.3228 -0.00449126 23.9792 8.74505e-06C17.6127 0.0053525 11.5312 2.5277 7.02938 7.02948C2.49638 11.5625 0 17.5894 0 24C0 28.3035 1.15425 32.5269 3.33806 36.2138C3.73387 36.882 4.59647 37.1028 5.26462 36.707C5.93278 36.3112 6.15366 35.4486 5.75784 34.7804C3.831 31.5273 2.8125 27.7995 2.8125 24Z" fill="black"/>
</svg>
